<?xml version="1.0" encoding="UTF-8" standalone="no"?>
<!DOCTYPE svg PUBLIC "-//W3C//DTD SVG 1.1//EN"
 "http://www.w3.org/Graphics/SVG/1.1/DTD/svg11.dtd">
<!-- Generated by graphviz version 2.36.0 (20140111.2315)
 -->
<!-- Title: %3 Pages: 1 -->
<svg width="396pt" height="704pt"
 viewBox="0.00 0.00 396.00 704.00" xmlns="http://www.w3.org/2000/svg" xmlns:xlink="http://www.w3.org/1999/xlink">
<g id="graph0" class="graph" transform="scale(1 1) rotate(0) translate(4 700)">
<title>%3</title>
<polygon fill="white" stroke="none" points="-4,4 -4,-700 392,-700 392,4 -4,4"/>
<g id="clust1" class="cluster"><title>cluster_0</title>
<polygon fill="none" stroke="darkorange" stroke-width="2" points="240,-390 240,-652 380,-652 380,-390 240,-390"/>
<text text-anchor="middle" x="262.5" y="-635.2" font-family="Helvetica,sans-Serif" font-size="16.00" fill="darkorange">Perl</text>
</g>
<g id="clust2" class="cluster"><title>cluster_1</title>
<polygon fill="none" stroke="darkorchid" stroke-width="2" points="74,-574 74,-652 232,-652 232,-574 74,-574"/>
<text text-anchor="middle" x="153" y="-635.2" font-family="Helvetica,sans-Serif" font-size="16.00" fill="darkorchid">WAV file directories</text>
</g>
<g id="clust3" class="cluster"><title>cluster_2</title>
<polygon fill="none" stroke="forestgreen" stroke-width="2" points="8,-8 8,-502 232,-502 232,-8 8,-8"/>
<text text-anchor="middle" x="40.5" y="-485.2" font-family="Helvetica,sans-Serif" font-size="16.00" fill="forestgreen">ChucK</text>
</g>
<g id="clust4" class="cluster"><title>cluster_3</title>
<polygon fill="none" stroke="forestgreen" stroke-width="2" points="48,-246 48,-468 212,-468 212,-246 48,-246"/>
<text text-anchor="middle" x="111.5" y="-451.2" font-family="Helvetica,sans-Serif" font-size="16.00" fill="forestgreen">Concrete mode</text>
</g>
<g id="clust5" class="cluster"><title>cluster_4</title>
<polygon fill="none" stroke="navy" stroke-width="2" points="59,-16 59,-238 224,-238 224,-16 59,-16"/>
<text text-anchor="middle" x="141.5" y="-221.2" font-family="Helvetica,sans-Serif" font-size="16.00" fill="navy">Core Concrete Mixer</text>
</g>
<!-- init -->
<g id="node1" class="node"><title>init</title>
<ellipse fill="darkorange" stroke="darkorange" stroke-width="2" cx="310" cy="-600" rx="31.2965" ry="18"/>
<text text-anchor="middle" x="310" y="-596.3" font-family="Helvetica,sans-Serif" font-size="14.00" fill="white">init.pl</text>
</g>
<!-- concretepm -->
<g id="node2" class="node"><title>concretepm</title>
<ellipse fill="darkorange" stroke="darkorange" stroke-width="2" cx="310" cy="-528" rx="61.6163" ry="18"/>
<text text-anchor="middle" x="310" y="-524.3" font-family="Helvetica,sans-Serif" font-size="14.00" fill="white">Concrete.pm</text>
</g>
<!-- init&#45;&gt;concretepm -->
<g id="edge2" class="edge"><title>init&#45;&gt;concretepm</title>
<path fill="none" stroke="darkorange" stroke-width="2" d="M310,-581.697C310,-573.983 310,-564.712 310,-556.112"/>
<polygon fill="darkorange" stroke="darkorange" stroke-width="2" points="313.5,-556.104 310,-546.104 306.5,-556.104 313.5,-556.104"/>
</g>
<!-- osc -->
<g id="node3" class="node"><title>osc</title>
<ellipse fill="brown" stroke="brown" stroke-width="2" cx="305" cy="-416" rx="57.2927" ry="18"/>
<text text-anchor="middle" x="305" y="-412.3" font-family="Helvetica,sans-Serif" font-size="14.00" fill="white">OSC server</text>
</g>
<!-- concretepm&#45;&gt;osc -->
<g id="edge3" class="edge"><title>concretepm&#45;&gt;osc</title>
<path fill="none" stroke="darkorange" stroke-width="2" d="M309.219,-509.812C308.419,-492.215 307.164,-464.607 306.23,-444.071"/>
<polygon fill="darkorange" stroke="darkorange" stroke-width="2" points="309.726,-443.898 305.776,-434.067 302.734,-444.215 309.726,-443.898"/>
</g>
<!-- playsound -->
<g id="node6" class="node"><title>playsound</title>
<ellipse fill="forestgreen" stroke="forestgreen" stroke-width="2" cx="120" cy="-344" rx="63.5411" ry="18"/>
<text text-anchor="middle" x="120" y="-340.3" font-family="Helvetica,sans-Serif" font-size="14.00" fill="white">playSound.ck</text>
</g>
<!-- concretepm&#45;&gt;playsound -->
<g id="edge7" class="edge"><title>concretepm&#45;&gt;playsound</title>
<path fill="none" stroke="darkorchid" stroke-width="2" d="M249.733,-524.58C185.125,-521.353 90.2497,-514.533 79,-502 45.7493,-464.957 61.0247,-436.419 79,-390 82.0055,-382.239 87.0417,-374.994 92.5748,-368.683"/>
<polygon fill="darkorchid" stroke="darkorchid" stroke-width="2" points="95.3375,-370.859 99.7337,-361.219 90.2857,-366.013 95.3375,-370.859"/>
</g>
<!-- concreteck -->
<g id="node8" class="node"><title>concreteck</title>
<ellipse fill="forestgreen" stroke="forestgreen" stroke-width="2" cx="146" cy="-416" rx="57.2688" ry="18"/>
<text text-anchor="middle" x="146" y="-412.3" font-family="Helvetica,sans-Serif" font-size="14.00" fill="white">Concrete.ck</text>
</g>
<!-- concretepm&#45;&gt;concreteck -->
<g id="edge4" class="edge"><title>concretepm&#45;&gt;concreteck</title>
<path fill="none" stroke="darkorange" stroke-width="2" d="M265.571,-515.453C255.476,-511.9 245.065,-507.45 236,-502 208.924,-485.721 183.267,-460.111 166.328,-441.253"/>
<polygon fill="darkorange" stroke="darkorange" stroke-width="2" points="168.856,-438.828 159.623,-433.631 163.6,-443.452 168.856,-438.828"/>
</g>
<!-- osc&#45;&gt;playsound -->
<g id="edge9" class="edge"><title>osc&#45;&gt;playsound</title>
<path fill="none" stroke="brown" stroke-width="2" d="M269.767,-401.669C240.315,-390.525 198.092,-374.548 165.981,-362.398"/>
<polygon fill="brown" stroke="brown" stroke-width="2" points="166.957,-359.025 156.365,-358.76 164.48,-365.572 166.957,-359.025"/>
</g>
<!-- playfx -->
<g id="node7" class="node"><title>playfx</title>
<ellipse fill="forestgreen" stroke="forestgreen" stroke-width="2" cx="152" cy="-272" rx="48.1437" ry="18"/>
<text text-anchor="middle" x="152" y="-268.3" font-family="Helvetica,sans-Serif" font-size="14.00" fill="white">playFx.ck</text>
</g>
<!-- osc&#45;&gt;playfx -->
<g id="edge8" class="edge"><title>osc&#45;&gt;playfx</title>
<path fill="none" stroke="brown" stroke-width="2" d="M287.449,-398.711C260.241,-373.459 207.793,-324.781 176.749,-295.97"/>
<polygon fill="brown" stroke="brown" stroke-width="2" points="179.057,-293.337 169.346,-289.099 174.295,-298.467 179.057,-293.337"/>
</g>
<!-- main -->
<g id="node4" class="node"><title>main</title>
<ellipse fill="darkorchid" stroke="darkorchid" stroke-width="2" cx="121" cy="-600" rx="30.3206" ry="18"/>
<text text-anchor="middle" x="121" y="-596.3" font-family="Helvetica,sans-Serif" font-size="14.00" fill="white">Main</text>
</g>
<!-- main&#45;&gt;concretepm -->
<g id="edge5" class="edge"><title>main&#45;&gt;concretepm</title>
<path fill="none" stroke="darkorchid" stroke-width="2" d="M139.954,-585.717C146.426,-581.576 153.841,-577.248 161,-574 190.496,-560.617 225.037,-549.9 253.432,-542.288"/>
<polygon fill="darkorchid" stroke="darkorchid" stroke-width="2" points="254.416,-545.648 263.201,-539.725 252.64,-538.877 254.416,-545.648"/>
</g>
<!-- alt -->
<g id="node5" class="node"><title>alt</title>
<ellipse fill="darkorchid" stroke="darkorchid" stroke-width="2" cx="197" cy="-600" rx="27" ry="18"/>
<text text-anchor="middle" x="197" y="-596.3" font-family="Helvetica,sans-Serif" font-size="14.00" fill="white">Alt</text>
</g>
<!-- alt&#45;&gt;concretepm -->
<g id="edge6" class="edge"><title>alt&#45;&gt;concretepm</title>
<path fill="none" stroke="darkorchid" stroke-width="2" d="M215.986,-586.702C222.33,-582.627 229.451,-578.089 236,-574 248.829,-565.989 263,-557.326 275.479,-549.761"/>
<polygon fill="darkorchid" stroke="darkorchid" stroke-width="2" points="277.479,-552.642 284.223,-544.47 273.855,-546.652 277.479,-552.642"/>
</g>
<!-- playsound&#45;&gt;playfx -->
<g id="edge24" class="edge"><title>playsound&#45;&gt;playfx</title>
<path fill="none" stroke="steelblue" stroke-width="2" d="M127.746,-326.055C131.441,-317.973 135.945,-308.121 140.063,-299.112"/>
<polygon fill="steelblue" stroke="steelblue" stroke-width="2" points="143.351,-300.339 144.325,-289.789 136.984,-297.429 143.351,-300.339"/>
</g>
<!-- controlck -->
<g id="node9" class="node"><title>controlck</title>
<ellipse fill="navy" stroke="navy" stroke-width="2" cx="146" cy="-114" rx="50.0684" ry="18"/>
<text text-anchor="middle" x="146" y="-110.3" font-family="Helvetica,sans-Serif" font-size="14.00" fill="white">Control.ck</text>
</g>
<!-- playsound&#45;&gt;controlck -->
<g id="edge10" class="edge"><title>playsound&#45;&gt;controlck</title>
<path fill="none" stroke="brown" stroke-width="2" d="M102.073,-326.5C95.2928,-316.372 88.8911,-302.906 86,-290 81.7252,-270.917 82.6468,-265.266 86,-246 92.7089,-207.454 111.015,-165.813 125.973,-140.069"/>
<polygon fill="brown" stroke="brown" stroke-width="2" points="129.079,-141.697 131.304,-131.338 123.105,-138.049 129.079,-141.697"/>
</g>
<!-- playsound&#45;&gt;controlck -->
<g id="edge23" class="edge"><title>playsound&#45;&gt;controlck</title>
<path fill="none" stroke="steelblue" stroke-width="2" d="M117.302,-325.556C112.902,-315.543 106.802,-302.509 104,-290 99.7252,-270.917 100.647,-265.266 104,-246 110.576,-208.217 128.295,-167.459 138.918,-141.615"/>
<polygon fill="steelblue" stroke="steelblue" stroke-width="2" points="142.239,-142.737 142.731,-132.154 135.747,-140.121 142.239,-142.737"/>
</g>
<!-- helperlibs -->
<g id="node11" class="node"><title>helperlibs</title>
<ellipse fill="navy" stroke="navy" stroke-width="2" cx="119" cy="-42" rx="51.4931" ry="18"/>
<text text-anchor="middle" x="119" y="-38.3" font-family="Helvetica,sans-Serif" font-size="14.00" fill="white">Helper libs</text>
</g>
<!-- playsound&#45;&gt;helperlibs -->
<g id="edge20" class="edge"><title>playsound&#45;&gt;helperlibs</title>
<path fill="none" stroke="navy" stroke-width="2" d="M107.425,-326.306C100.651,-316.325 92.9006,-303.075 89,-290 64.3304,-207.306 54.5913,-178.155 81,-96 84.3262,-85.6523 90.5016,-75.6122 96.9214,-67.1043"/>
<polygon fill="navy" stroke="navy" stroke-width="2" points="99.7792,-69.1358 103.326,-59.1523 94.3276,-64.7448 99.7792,-69.1358"/>
</g>
<!-- playfx&#45;&gt;controlck -->
<g id="edge11" class="edge"><title>playfx&#45;&gt;controlck</title>
<path fill="none" stroke="brown" stroke-width="2" d="M138.897,-254.43C135.674,-249.43 132.671,-243.738 131,-238 121.59,-205.687 129.283,-166.932 136.69,-141.677"/>
<polygon fill="brown" stroke="brown" stroke-width="2" points="140.053,-142.647 139.689,-132.059 133.371,-140.563 140.053,-142.647"/>
</g>
<!-- fxlibs -->
<g id="node10" class="node"><title>fxlibs</title>
<ellipse fill="navy" stroke="navy" stroke-width="2" cx="178" cy="-186" rx="37.5442" ry="18"/>
<text text-anchor="middle" x="178" y="-182.3" font-family="Helvetica,sans-Serif" font-size="14.00" fill="white">FX libs</text>
</g>
<!-- playfx&#45;&gt;fxlibs -->
<g id="edge21" class="edge"><title>playfx&#45;&gt;fxlibs</title>
<path fill="none" stroke="navy" stroke-width="2" d="M157.261,-254.001C160.856,-242.388 165.692,-226.765 169.789,-213.526"/>
<polygon fill="navy" stroke="navy" stroke-width="2" points="173.133,-214.561 172.746,-203.973 166.446,-212.491 173.133,-214.561"/>
</g>
<!-- playfx&#45;&gt;helperlibs -->
<g id="edge22" class="edge"><title>playfx&#45;&gt;helperlibs</title>
<path fill="none" stroke="navy" stroke-width="2" d="M135.566,-254.864C131.04,-249.786 126.436,-243.943 123,-238 98.0977,-194.926 95.1084,-181.089 87,-132 84.3925,-116.214 82.7077,-111.414 87,-96 89.7105,-86.2668 94.7449,-76.5356 100.031,-68.1172"/>
<polygon fill="navy" stroke="navy" stroke-width="2" points="103.107,-69.8148 105.768,-59.5597 97.2925,-65.9169 103.107,-69.8148"/>
</g>
<!-- concreteck&#45;&gt;playsound -->
<g id="edge15" class="edge"><title>concreteck&#45;&gt;playsound</title>
<path fill="none" stroke="forestgreen" stroke-width="2" d="M139.706,-398.055C136.78,-390.176 133.229,-380.617 129.952,-371.794"/>
<polygon fill="forestgreen" stroke="forestgreen" stroke-width="2" points="133.179,-370.431 126.417,-362.275 126.617,-372.868 133.179,-370.431"/>
</g>
<!-- concreteck&#45;&gt;playfx -->
<g id="edge14" class="edge"><title>concreteck&#45;&gt;playfx</title>
<path fill="none" stroke="forestgreen" stroke-width="2" d="M165.384,-399.005C175.402,-389.445 186.629,-376.381 192,-362 197.597,-347.011 197.082,-341.171 192,-326 188.448,-315.397 181.845,-305.22 175.013,-296.668"/>
<polygon fill="forestgreen" stroke="forestgreen" stroke-width="2" points="177.634,-294.348 168.485,-289.006 172.306,-298.888 177.634,-294.348"/>
</g>
<!-- concreteck&#45;&gt;controlck -->
<g id="edge13" class="edge"><title>concreteck&#45;&gt;controlck</title>
<path fill="none" stroke="forestgreen" stroke-width="2" d="M103.833,-403.703C82.8466,-395.716 59.3713,-382.656 47,-362 38.7789,-348.274 44.695,-341.833 47,-326 57.5545,-253.501 56.8048,-231.119 94,-168 100.596,-156.808 110.057,-146.213 119.106,-137.481"/>
<polygon fill="forestgreen" stroke="forestgreen" stroke-width="2" points="121.57,-139.97 126.538,-130.612 116.819,-134.829 121.57,-139.97"/>
</g>
<!-- concreteck&#45;&gt;fxlibs -->
<g id="edge16" class="edge"><title>concreteck&#45;&gt;fxlibs</title>
<path fill="none" stroke="forestgreen" stroke-width="2" d="M167.953,-399.355C179.463,-389.905 192.659,-376.834 200,-362 222.936,-315.654 221.387,-296.205 209,-246 206.072,-234.131 200.28,-222.009 194.487,-211.865"/>
<polygon fill="forestgreen" stroke="forestgreen" stroke-width="2" points="197.407,-209.929 189.249,-203.169 191.411,-213.541 197.407,-209.929"/>
</g>
<!-- concreteck&#45;&gt;helperlibs -->
<g id="edge17" class="edge"><title>concreteck&#45;&gt;helperlibs</title>
<path fill="none" stroke="forestgreen" stroke-width="2" d="M103.899,-403.634C81.5315,-395.523 55.3554,-382.366 39,-362 13.4866,-330.23 17,-313.746 17,-273 17,-273 17,-273 17,-185 17,-135.059 59.1325,-90.657 89.2403,-65.3031"/>
<polygon fill="forestgreen" stroke="forestgreen" stroke-width="2" points="91.8348,-67.7033 97.3684,-58.6684 87.4083,-62.2806 91.8348,-67.7033"/>
</g>
<!-- controlck&#45;&gt;osc -->
<g id="edge12" class="edge"><title>controlck&#45;&gt;osc</title>
<path fill="none" stroke="brown" stroke-width="2" d="M175.163,-128.733C191.589,-137.803 211.296,-151.129 224,-168 275.612,-236.54 295.239,-339.508 301.922,-387.964"/>
<polygon fill="brown" stroke="brown" stroke-width="2" points="298.465,-388.519 303.225,-397.984 305.406,-387.617 298.465,-388.519"/>
</g>
<!-- controlck&#45;&gt;helperlibs -->
<g id="edge19" class="edge"><title>controlck&#45;&gt;helperlibs</title>
<path fill="none" stroke="navy" stroke-width="2" d="M139.464,-96.055C136.425,-88.1762 132.738,-78.6165 129.335,-69.794"/>
<polygon fill="navy" stroke="navy" stroke-width="2" points="132.528,-68.3457 125.663,-60.2753 125.997,-70.8649 132.528,-68.3457"/>
</g>
<!-- DAC -->
<g id="node13" class="node"><title>DAC</title>
<ellipse fill="steelblue" stroke="steelblue" stroke-width="2" cx="269" cy="-42" rx="29.3722" ry="18"/>
<text text-anchor="middle" x="269" y="-38.3" font-family="Helvetica,sans-Serif" font-size="14.00" fill="white">DAC</text>
</g>
<!-- controlck&#45;&gt;DAC -->
<g id="edge26" class="edge"><title>controlck&#45;&gt;DAC</title>
<path fill="none" stroke="steelblue" stroke-width="2" d="M171.486,-98.496C191.223,-87.2634 218.601,-71.6824 239.324,-59.8885"/>
<polygon fill="steelblue" stroke="steelblue" stroke-width="2" points="241.081,-62.9159 248.041,-54.9278 237.619,-56.8322 241.081,-62.9159"/>
</g>
<!-- fxlibs&#45;&gt;controlck -->
<g id="edge25" class="edge"><title>fxlibs&#45;&gt;controlck</title>
<path fill="none" stroke="steelblue" stroke-width="2" d="M170.254,-168.055C166.559,-159.973 162.055,-150.121 157.937,-141.112"/>
<polygon fill="steelblue" stroke="steelblue" stroke-width="2" points="161.016,-139.429 153.675,-131.789 154.649,-142.339 161.016,-139.429"/>
</g>
<!-- fxlibs&#45;&gt;helperlibs -->
<g id="edge18" class="edge"><title>fxlibs&#45;&gt;helperlibs</title>
<path fill="none" stroke="navy" stroke-width="2" d="M190.288,-168.745C202.651,-150.244 218.146,-119.544 205,-96 195.994,-79.8713 179.841,-68.0427 163.946,-59.7059"/>
<polygon fill="navy" stroke="navy" stroke-width="2" points="165.197,-56.4222 154.673,-55.1947 162.134,-62.7168 165.197,-56.4222"/>
</g>
<!-- shell -->
<g id="node12" class="node"><title>shell</title>
<ellipse fill="hotpink" stroke="hotpink" stroke-width="2" cx="310" cy="-678" rx="59.1941" ry="18"/>
<text text-anchor="middle" x="310" y="-674.3" font-family="Helvetica,sans-Serif" font-size="14.00" fill="white">Linux shell $</text>
</g>
<!-- shell&#45;&gt;init -->
<g id="edge1" class="edge"><title>shell&#45;&gt;init</title>
<path fill="none" stroke="hotpink" stroke-width="2" d="M310,-659.754C310,-650.523 310,-638.935 310,-628.495"/>
<polygon fill="hotpink" stroke="hotpink" stroke-width="2" points="313.5,-628.177 310,-618.177 306.5,-628.177 313.5,-628.177"/>
</g>
</g>
</svg>
