<?xml version="1.0" encoding="UTF-8" standalone="no"?>
<!DOCTYPE svg PUBLIC "-//W3C//DTD SVG 1.1//EN"
 "http://www.w3.org/Graphics/SVG/1.1/DTD/svg11.dtd">
<!-- Generated by graphviz version 2.36.0 (20140111.2315)
 -->
<!-- Title: %3 Pages: 1 -->
<svg width="376pt" height="334pt"
 viewBox="0.00 0.00 376.00 334.00" xmlns="http://www.w3.org/2000/svg" xmlns:xlink="http://www.w3.org/1999/xlink">
<g id="graph0" class="graph" transform="scale(1 1) rotate(0) translate(4 330)">
<title>%3</title>
<polygon fill="white" stroke="none" points="-4,4 -4,-330 372,-330 372,4 -4,4"/>
<g id="clust1" class="cluster"><title>cluster_0</title>
<polygon fill="none" stroke="chocolate" stroke-width="2" points="44,-136 44,-232 194,-232 194,-136 44,-136"/>
<text text-anchor="middle" x="66.5" y="-215.2" font-family="Helvetica,sans-Serif" font-size="16.00" fill="chocolate">Perl</text>
</g>
<g id="clust2" class="cluster"><title>cluster_1</title>
<polygon fill="none" stroke="darkorchid" stroke-width="2" points="8,-240 8,-318 158,-318 158,-240 8,-240"/>
<text text-anchor="middle" x="51" y="-301.2" font-family="Helvetica,sans-Serif" font-size="16.00" fill="darkorchid">WAV files</text>
</g>
<g id="clust3" class="cluster"><title>cluster_2</title>
<polygon fill="none" stroke="forestgreen" stroke-width="2" points="202,-64 202,-223 360,-223 360,-64 202,-64"/>
<text text-anchor="middle" x="234.5" y="-206.2" font-family="Helvetica,sans-Serif" font-size="16.00" fill="forestgreen">ChucK</text>
</g>
<!-- concretepm -->
<g id="node1" class="node"><title>concretepm</title>
<ellipse fill="chocolate" stroke="chocolate" stroke-width="2" cx="119" cy="-171" rx="67.2629" ry="26.7407"/>
<text text-anchor="middle" x="119" y="-174.8" font-family="Helvetica,sans-Serif" font-size="14.00" fill="white">Concrete.pm</text>
<text text-anchor="middle" x="119" y="-159.8" font-family="Helvetica,sans-Serif" font-size="14.00" fill="white">OSC server</text>
</g>
<!-- playsound -->
<g id="node4" class="node"><title>playsound</title>
<ellipse fill="forestgreen" stroke="forestgreen" stroke-width="2" cx="284" cy="-171" rx="63.5411" ry="18"/>
<text text-anchor="middle" x="284" y="-167.3" font-family="Helvetica,sans-Serif" font-size="14.00" fill="white">playSound.ck</text>
</g>
<!-- concretepm&#45;&gt;playsound -->
<g id="edge4" class="edge"><title>concretepm&#45;&gt;playsound</title>
<path fill="none" stroke="darkorchid" stroke-width="2" d="M170.562,-153.681C192.209,-149.716 213.856,-149.912 235.503,-154.271"/>
<polygon fill="darkorchid" stroke="darkorchid" stroke-width="2" points="234.918,-157.728 245.449,-156.566 236.492,-150.907 234.918,-157.728"/>
</g>
<!-- concretepm&#45;&gt;playsound -->
<g id="edge5" class="edge"><title>concretepm&#45;&gt;playsound</title>
<path fill="none" stroke="chocolate" stroke-width="2" d="M170.562,-188.319C192.209,-192.284 213.856,-192.088 235.503,-187.729"/>
<polygon fill="chocolate" stroke="chocolate" stroke-width="2" points="236.492,-191.093 245.449,-185.434 234.918,-184.272 236.492,-191.093"/>
</g>
<!-- playfx -->
<g id="node5" class="node"><title>playfx</title>
<ellipse fill="forestgreen" stroke="forestgreen" stroke-width="2" cx="281" cy="-90" rx="70.2668" ry="18"/>
<text text-anchor="middle" x="281" y="-86.3" font-family="Helvetica,sans-Serif" font-size="14.00" fill="white">playFxChain.ck</text>
</g>
<!-- concretepm&#45;&gt;playfx -->
<g id="edge6" class="edge"><title>concretepm&#45;&gt;playfx</title>
<path fill="none" stroke="chocolate" stroke-width="2" d="M164.094,-150.876C189.686,-138.944 221.2,-123.594 245.112,-111.424"/>
<polygon fill="chocolate" stroke="chocolate" stroke-width="2" points="246.901,-114.44 254.201,-106.761 243.706,-108.212 246.901,-114.44"/>
</g>
<!-- main -->
<g id="node2" class="node"><title>main</title>
<ellipse fill="darkorchid" stroke="darkorchid" stroke-width="2" cx="119" cy="-266" rx="30.3206" ry="18"/>
<text text-anchor="middle" x="119" y="-262.3" font-family="Helvetica,sans-Serif" font-size="14.00" fill="white">Main</text>
</g>
<!-- main&#45;&gt;concretepm -->
<g id="edge2" class="edge"><title>main&#45;&gt;concretepm</title>
<path fill="none" stroke="darkorchid" stroke-width="2" d="M119,-247.942C119,-236.827 119,-221.899 119,-208.22"/>
<polygon fill="darkorchid" stroke="darkorchid" stroke-width="2" points="122.5,-208.087 119,-198.087 115.5,-208.087 122.5,-208.087"/>
</g>
<!-- alt -->
<g id="node3" class="node"><title>alt</title>
<ellipse fill="darkorchid" stroke="darkorchid" stroke-width="2" cx="43" cy="-266" rx="27" ry="18"/>
<text text-anchor="middle" x="43" y="-262.3" font-family="Helvetica,sans-Serif" font-size="14.00" fill="white">Alt</text>
</g>
<!-- alt&#45;&gt;concretepm -->
<g id="edge3" class="edge"><title>alt&#45;&gt;concretepm</title>
<path fill="none" stroke="darkorchid" stroke-width="2" d="M55.5499,-249.643C65.5307,-237.43 79.8467,-219.911 92.3551,-204.605"/>
<polygon fill="darkorchid" stroke="darkorchid" stroke-width="2" points="95.0812,-206.8 98.6989,-196.842 89.6609,-202.371 95.0812,-206.8"/>
</g>
<!-- playsound&#45;&gt;concretepm -->
<g id="edge8" class="edge"><title>playsound&#45;&gt;concretepm</title>
<path fill="none" stroke="chocolate" stroke-width="2" d="M220.301,-171C212.345,-171 204.388,-171 196.432,-171"/>
<polygon fill="chocolate" stroke="chocolate" stroke-width="2" points="196.354,-167.5 186.354,-171 196.353,-174.5 196.354,-167.5"/>
</g>
<!-- playsound&#45;&gt;playfx -->
<g id="edge10" class="edge"><title>playsound&#45;&gt;playfx</title>
<path fill="none" stroke="steelblue" stroke-width="2" d="M283.349,-152.858C282.964,-142.713 282.467,-129.634 282.03,-118.117"/>
<polygon fill="steelblue" stroke="steelblue" stroke-width="2" points="285.527,-117.968 281.65,-108.108 278.532,-118.234 285.527,-117.968"/>
</g>
<!-- DAC -->
<g id="node7" class="node"><title>DAC</title>
<ellipse fill="steelblue" stroke="steelblue" stroke-width="2" cx="330" cy="-18" rx="29.3722" ry="18"/>
<text text-anchor="middle" x="330" y="-14.3" font-family="Helvetica,sans-Serif" font-size="14.00" fill="white">DAC</text>
</g>
<!-- playsound&#45;&gt;DAC -->
<g id="edge9" class="edge"><title>playsound&#45;&gt;DAC</title>
<path fill="none" stroke="steelblue" stroke-width="2" d="M313.048,-154.984C330.153,-144.394 350.287,-128.459 360,-108 368.387,-90.3342 365.667,-82.7165 360,-64 357.718,-56.4625 353.711,-49.0336 349.354,-42.4512"/>
<polygon fill="steelblue" stroke="steelblue" stroke-width="2" points="352.006,-40.1439 343.325,-34.0692 346.323,-44.2312 352.006,-40.1439"/>
</g>
<!-- playfx&#45;&gt;concretepm -->
<g id="edge7" class="edge"><title>playfx&#45;&gt;concretepm</title>
<path fill="none" stroke="chocolate" stroke-width="2" d="M245.579,-105.647C222.152,-116.398 191.291,-131.285 165.863,-144.033"/>
<polygon fill="chocolate" stroke="chocolate" stroke-width="2" points="164.118,-140.993 156.765,-148.621 167.27,-147.244 164.118,-140.993"/>
</g>
<!-- playfx&#45;&gt;DAC -->
<g id="edge11" class="edge"><title>playfx&#45;&gt;DAC</title>
<path fill="none" stroke="steelblue" stroke-width="2" d="M292.862,-72.055C298.933,-63.3808 306.431,-52.6694 313.097,-43.1473"/>
<polygon fill="steelblue" stroke="steelblue" stroke-width="2" points="316.052,-45.0289 318.919,-34.8294 310.317,-41.0146 316.052,-45.0289"/>
</g>
<!-- shell -->
<g id="node6" class="node"><title>shell</title>
<ellipse fill="hotpink" stroke="hotpink" stroke-width="2" cx="227" cy="-266" rx="59.1941" ry="18"/>
<text text-anchor="middle" x="227" y="-262.3" font-family="Helvetica,sans-Serif" font-size="14.00" fill="white">Linux shell $</text>
</g>
<!-- shell&#45;&gt;concretepm -->
<g id="edge1" class="edge"><title>shell&#45;&gt;concretepm</title>
<path fill="none" stroke="hotpink" stroke-width="2" d="M208.188,-248.801C193.409,-236.074 172.401,-217.984 154.486,-202.558"/>
<polygon fill="hotpink" stroke="hotpink" stroke-width="2" points="156.368,-199.559 146.506,-195.686 151.8,-204.863 156.368,-199.559"/>
</g>
</g>
</svg>
